<svg id="visual" viewBox="0 0 900 675" width="900" height="675" xmlns="http://www.w3.org/2000/svg" xmlns:xlink="http://www.w3.org/1999/xlink" version="1.1"><rect x="0" y="0" width="900" height="675" fill="#001220"></rect><defs><linearGradient id="grad1_0" x1="25%" y1="0%" x2="100%" y2="100%"><stop offset="23.333333333333336%" stop-color="#ee5007" stop-opacity="1"></stop><stop offset="76.66666666666666%" stop-color="#ee5007" stop-opacity="1"></stop></linearGradient></defs><defs><linearGradient id="grad1_1" x1="25%" y1="0%" x2="100%" y2="100%"><stop offset="23.333333333333336%" stop-color="#ee5007" stop-opacity="1"></stop><stop offset="76.66666666666666%" stop-color="#7a2468" stop-opacity="1"></stop></linearGradient></defs><defs><linearGradient id="grad1_2" x1="25%" y1="0%" x2="100%" y2="100%"><stop offset="23.333333333333336%" stop-color="#001220" stop-opacity="1"></stop><stop offset="76.66666666666666%" stop-color="#7a2468" stop-opacity="1"></stop></linearGradient></defs><defs><linearGradient id="grad2_0" x1="0%" y1="0%" x2="75%" y2="100%"><stop offset="23.333333333333336%" stop-color="#ee5007" stop-opacity="1"></stop><stop offset="76.66666666666666%" stop-color="#ee5007" stop-opacity="1"></stop></linearGradient></defs><defs><linearGradient id="grad2_1" x1="0%" y1="0%" x2="75%" y2="100%"><stop offset="23.333333333333336%" stop-color="#7a2468" stop-opacity="1"></stop><stop offset="76.66666666666666%" stop-color="#ee5007" stop-opacity="1"></stop></linearGradient></defs><defs><linearGradient id="grad2_2" x1="0%" y1="0%" x2="75%" y2="100%"><stop offset="23.333333333333336%" stop-color="#7a2468" stop-opacity="1"></stop><stop offset="76.66666666666666%" stop-color="#001220" stop-opacity="1"></stop></linearGradient></defs><g transform="translate(900, 0)"><path d="M0 309.4C-40.2 305.3 -80.4 301.3 -118.4 285.8C-156.4 270.4 -192.2 243.6 -210 210C-227.8 176.4 -227.6 136 -241.1 99.9C-254.7 63.7 -282 31.9 -309.4 0L0 0Z" fill="#292652"></path><path d="M0 206.3C-26.8 203.5 -53.6 200.8 -78.9 190.6C-104.3 180.3 -128.1 162.4 -140 140C-151.9 117.6 -151.7 90.7 -160.8 66.6C-169.8 42.5 -188 21.2 -206.2 0L0 0Z" fill="#c71452"></path><path d="M0 103.1C-13.4 101.8 -26.8 100.4 -39.5 95.3C-52.1 90.1 -64.1 81.2 -70 70C-75.9 58.8 -75.9 45.3 -80.4 33.3C-84.9 21.2 -94 10.6 -103.1 0L0 0Z" fill="#ee5007"></path></g><g transform="translate(0, 675)"><path d="M0 -309.4C42.7 -302.4 85.4 -295.4 112.5 -271.6C139.7 -247.8 151.3 -207.1 181.7 -181.7C212.2 -156.3 261.4 -146.1 285.8 -118.4C310.2 -90.6 309.8 -45.3 309.4 0L0 0Z" fill="#292652"></path><path d="M0 -206.2C28.5 -201.6 56.9 -197 75 -181.1C93.1 -165.2 100.9 -138.1 121.2 -121.2C141.4 -104.2 174.3 -97.4 190.6 -78.9C206.8 -60.4 206.5 -30.2 206.3 0L0 0Z" fill="#c71452"></path><path d="M0 -103.1C14.2 -100.8 28.5 -98.5 37.5 -90.5C46.6 -82.6 50.4 -69 60.6 -60.6C70.7 -52.1 87.1 -48.7 95.3 -39.5C103.4 -30.2 103.3 -15.1 103.1 0L0 0Z" fill="#ee5007"></path></g></svg>